HIERARCHY
ROOT hip
{
  OFFSET 0 0 0
  CHANNELS 6 Xposition Yposition Zposition Zrotation Yrotation Xrotation
  JOINT abdomen
  {
    OFFSET 0 20.6881 -0.73152
    CHANNELS 3 Zrotation Xrotation Yrotation
    JOINT chest
    {
      OFFSET 0 11.7043 -0.48768
      CHANNELS 3 Zrotation Xrotation Yrotation
      JOINT neck
      {
        OFFSET 0 22.1894 -2.19456
        CHANNELS 3 Zrotation Xrotation Yrotation
        JOINT head
        {
          OFFSET -0.24384 7.07133 1.2192
          CHANNELS 3 Zrotation Xrotation Yrotation
          JOINT leftEye
          {
            OFFSET 4.14528 8.04674 8.04672
            CHANNELS 3 Zrotation Xrotation Yrotation
            End Site
            {
              OFFSET 1 0 0
            }
          }
          JOINT rightEye
          {
            OFFSET -3.6576 8.04674 8.04672
            CHANNELS 3 Zrotation Xrotation Yrotation
            End Site
            {
              OFFSET 1 0 0
            }
          }
        }
      }
      JOINT rCollar
      {
        OFFSET -2.68224 19.2634 -4.8768
        CHANNELS 3 Zrotation Xrotation Yrotation
        JOINT rShldr
        {
          OFFSET -8.77824 -1.95073 1.46304
          CHANNELS 3 Zrotation Xrotation Yrotation
          JOINT rForeArm
          {
            OFFSET -28.1742 -1.7115 0.48768
            CHANNELS 3 Zrotation Xrotation Yrotation
            JOINT rHand
            {
              OFFSET -22.5879 0.773209 7.07136
              CHANNELS 3 Zrotation Xrotation Yrotation
              JOINT rThumb1
              {
                OFFSET -1.2192 -0.487915 3.41376
                CHANNELS 3 Zrotation Xrotation Yrotation
                JOINT rThumb2
                {
                  OFFSET -3.37035 -0.52449 3.41376
                  CHANNELS 3 Zrotation Xrotation Yrotation
                  End Site
                  {
                    OFFSET -1.78271 -1.18214 1.43049
                  }
                }
              }
              JOINT rIndex1
              {
                OFFSET -7.75947 0.938293 5.60832
                CHANNELS 3 Zrotation Xrotation Yrotation
                JOINT rIndex2
                {
                  OFFSET -2.54057 -0.884171 1.56538
                  CHANNELS 3 Zrotation Xrotation Yrotation
                  End Site
                  {
                    OFFSET -1.62519 -0.234802 1.16502
                  }
                }
              }
              JOINT rMid1
              {
                OFFSET -8.24714 1.18213 3.41376
                CHANNELS 3 Zrotation Xrotation Yrotation
                JOINT rMid2
                {
                  OFFSET -3.10165 -0.590103 1.0647
                  CHANNELS 3 Zrotation Xrotation Yrotation
                  End Site
                  {
                    OFFSET -2.48547 -0.328903 0.83742
                  }
                }
              }
              JOINT rRing1
              {
                OFFSET -8.82822 0.546677 1.51678
                CHANNELS 3 Zrotation Xrotation Yrotation
                JOINT rRing2
                {
                  OFFSET -2.60934 -0.819778 -0.0198488
                  CHANNELS 3 Zrotation Xrotation Yrotation
                  End Site
                  {
                    OFFSET -2.33842 -0.294052 0.168128
                  }
                }
              }
              JOINT rPinky1
              {
                OFFSET -8.27202 -0.0477905 -0.4584
                CHANNELS 3 Zrotation Xrotation Yrotation
                JOINT rPinky2
                {
                  OFFSET -1.82734 -0.647385 -0.700984
                  CHANNELS 3 Zrotation Xrotation Yrotation
                  End Site
                  {
                    OFFSET -1.69225 -0.51767 -0.607171
                  }
                }
              }
            }
          }
        }
      }
      JOINT lCollar
      {
        OFFSET 2.68224 19.2634 -4.8768
        CHANNELS 3 Zrotation Xrotation Yrotation
        JOINT lShldr
        {
          OFFSET 8.77824 -1.95073 1.46304
          CHANNELS 3 Zrotation Xrotation Yrotation
          JOINT lForeArm
          {
            OFFSET 28.1742 -1.7115 0.48768
            CHANNELS 3 Zrotation Xrotation Yrotation
            JOINT lHand
            {
              OFFSET 22.5879 0.773209 7.07136
              CHANNELS 3 Zrotation Xrotation Yrotation
              JOINT lThumb1
              {
                OFFSET 1.2192 -0.487915 3.41376
                CHANNELS 3 Zrotation Xrotation Yrotation
                JOINT lThumb2
                {
                  OFFSET 3.37035 -0.52449 3.41376
                  CHANNELS 3 Zrotation Xrotation Yrotation
                  End Site
                  {
                    OFFSET 1.78271 -1.18214 1.43049
                  }
                }
              }
              JOINT lIndex1
              {
                OFFSET 7.75947 0.938293 5.60832
                CHANNELS 3 Zrotation Xrotation Yrotation
                JOINT lIndex2
                {
                  OFFSET 2.54057 -0.884171 1.56538
                  CHANNELS 3 Zrotation Xrotation Yrotation
                  End Site
                  {
                    OFFSET 1.62519 -0.234802 1.16502
                  }
                }
              }
              JOINT lMid1
              {
                OFFSET 8.24714 1.18213 3.41376
                CHANNELS 3 Zrotation Xrotation Yrotation
                JOINT lMid2
                {
                  OFFSET 3.10165 -0.590103 1.0647
                  CHANNELS 3 Zrotation Xrotation Yrotation
                  End Site
                  {
                    OFFSET 2.48547 -0.328903 0.83742
                  }
                }
              }
              JOINT lRing1
              {
                OFFSET 8.82822 0.546677 1.51678
                CHANNELS 3 Zrotation Xrotation Yrotation
                JOINT lRing2
                {
                  OFFSET 2.60934 -0.819778 -0.0198488
                  CHANNELS 3 Zrotation Xrotation Yrotation
                  End Site
                  {
                    OFFSET 2.33842 -0.294052 0.168128
                  }
                }
              }
              JOINT lPinky1
              {
                OFFSET 8.27202 -0.0477905 -0.4584
                CHANNELS 3 Zrotation Xrotation Yrotation
                JOINT lPinky2
                {
                  OFFSET 1.82734 -0.647385 -0.700984
                  CHANNELS 3 Zrotation Xrotation Yrotation
                  End Site
                  {
                    OFFSET 1.69225 -0.51767 -0.607171
                  }
                }
              }
            }
          }
        }
      }
    }
  }
  JOINT rButtock
  {
    OFFSET -8.77824 4.35084 1.2192
    CHANNELS 3 Zrotation Xrotation Yrotation
    JOINT rThigh
    {
      OFFSET 0 -1.70687 -2.19456
      CHANNELS 3 Zrotation Xrotation Yrotation
      JOINT rShin
      {
        OFFSET 0 -36.8199 0.73152
        CHANNELS 3 Zrotation Xrotation Yrotation
        JOINT rFoot
        {
          OFFSET 0.73152 -45.1104 -5.12064
          CHANNELS 3 Zrotation Xrotation Yrotation
          End Site
          {
            OFFSET -1.1221 -3.69964 12.103
          }
        }
      }
    }
  }
  JOINT lButtock
  {
    OFFSET 8.77824 4.35084 1.2192
    CHANNELS 3 Zrotation Xrotation Yrotation
    JOINT lThigh
    {
      OFFSET 0 -1.70687 -2.19456
      CHANNELS 3 Zrotation Xrotation Yrotation
      JOINT lShin
      {
        OFFSET 0 -36.8199 0.73152
        CHANNELS 3 Zrotation Xrotation Yrotation
        JOINT lFoot
        {
          OFFSET -0.73152 -45.1104 -5.12064
          CHANNELS 3 Zrotation Xrotation Yrotation
          End Site
          {
            OFFSET 1.1221 -3.69964 12.103
          }
        }
      }
    }
  }
}
MOTION
Frames:	4
Frame Time:	0.00833333
-3.4377 83.7392 -1.6108999999999998 179.740126 43.097877 -172.848947 -4.579184 -12.287294 -180.0 -7.584193 2.175766 -174.746559 6.198796 21.743864 61.82808 14.010429 -16.694434 -41.297872 0.004185 -0.0 -0.001193 0.000906 0.0 0.000395 -85.537312 68.182101 88.688912 -57.634472 -39.257031 -54.535696 17.705377 83.071147 -145.121847 -174.925113 -0.091079 142.434631 178.339038 -19.018534 88.98851 -37.184627 -24.675975 -0.527182 -138.493709 4.89628 114.864577 10.341916 -2.795463 -9.52562 -154.521863 10.688988 139.685323 -34.730709 54.930343 29.48215 0.000239 0.022653 0.006907 -156.065495 -12.556323 173.343393 -157.330733 57.245933 -150.512988 -24.59878 -39.194545 -25.133234 14.14784 43.061586 -15.996575 -77.230636 6.374327 -24.766865 1.712202 -5.155106 -112.998748 6.691613 27.529967 -1.528133 -71.831134 -48.263745 -25.791733 21.215752 -9.695201 17.450734 83.732124 42.330616 -69.990271 90.030851 51.808624 -66.353863 -0.540425 -1.589995 0.295661 7.310011 26.196561 -6.026963 72.964722 -72.143097 89.990134 -14.101144 26.716679 1.024691 0.530743 -1.364251 0.488434 167.396772 72.970094 148.007263 179.995508 75.74994 0.004635 -168.728422 45.268845 -7.900784 -18.462565 52.994482 -82.998048 173.396846 41.554407 -110.1035 0.004139 0.001477 0.002069 8.102165 -29.419621 70.187335 39.642976 0.039977 -98.167485 -69.539552 -21.931868 8.116718
-4.2512 83.9151 -1.9712 176.547955 48.509352 -174.089159 -5.636649 -12.817128 -159.787575 -5.380502 4.804146 165.89064 7.981321 24.34732 79.459834 5.331666 -18.040921 -58.398118 -0.001982 -0.0 0.002282 -0.001982 -0.0 0.002282 0.041499 -0.252475 -0.055396 -83.481597 47.954718 49.945078 0.859903 32.971443 -130.887771 -175.58993 -3.56225 142.810486 -12.926014 12.051595 3.310727 62.100358 -66.866169 -1.156453 10.282224 -18.182481 -4.585689 -158.752093 -12.800881 110.682416 89.034838 -81.393907 59.760672 86.342525 -78.160708 57.805065 -31.709317 -66.10843 -46.284905 -85.401969 81.709595 103.136814 17.606182 61.627669 12.865169 -23.995749 -39.743273 -24.004168 -3.771534 -33.701824 6.515975 -36.966847 -15.978013 51.004813 43.074616 16.187385 -149.701128 -11.316284 -25.744719 -5.343786 178.927214 -16.453863 -89.421259 31.442551 -31.097861 0.519313 77.66874 43.030112 -64.537807 -176.959439 -37.625242 -110.039706 161.154352 -8.160442 -143.465337 -2.649978 1.63212 -0.584703 72.351727 72.975742 -90.217602 -5.194088 26.573042 0.924707 -12.252954 41.424905 -10.279542 81.149396 -54.233086 80.013797 -0.000188 0.000634 -0.000282 5.624239 -32.464109 41.105243 36.094991 49.811086 -162.907648 -43.987706 51.244069 146.674376 -179.999959 75.750803 0.0 -169.954565 47.522842 15.609082 25.489398 30.462383 -89.511766 76.263874 28.426757 -4.205669
-5.0163 83.9986 -2.3354 173.113962 53.813776 -175.977076 -7.829153 -8.902845 -18.792913 8.887891 -5.081431 25.615381 -13.251446 30.99255 -96.062392 -5.411284 36.134277 131.488774 0.000746 -0.0 -0.003239 0.000746 -0.0 -0.003239 -158.897123 -36.946201 168.197899 -112.297016 -7.154306 169.02373 -2.694197 78.14053 -129.2198 -174.290696 -0.928731 142.460615 4.531042 -4.514051 -0.519896 -131.63485 -27.347222 117.487895 -124.892559 21.790911 105.251275 45.21185 -54.616778 3.862162 -89.835623 60.701299 81.262457 -163.29421 -5.433211 143.223727 -145.100941 -1.520983 -178.649902 10.354687 0.032896 -8.993105 -145.176522 12.067067 -141.822807 -112.241265 -42.262235 -110.638063 143.619414 38.232839 -148.079452 35.295426 -9.784539 -64.442195 169.434685 -42.422794 63.055524 6.390489 26.530612 -1.427669 93.743603 37.964055 -53.548664 52.759182 -3.063249 -45.603882 150.883731 -16.291931 -120.978771 159.20164 -11.015057 -119.516357 86.293559 60.959995 -77.858043 34.415454 55.065783 -29.259285 145.113724 -0.355655 179.014915 -12.05552 51.122089 2.975359 -4.59519 13.35994 -4.157011 -10.231082 26.31839 -6.159535 0.0 0.000407 -0.000685 2.814109 -37.294914 165.53657 39.850017 -50.418503 125.515175 -109.673772 81.672695 -164.720493 0.024675 0.000411 0.018507 7.242294 -28.647115 -165.153891 -22.268243 -33.35608 172.214694 93.73508 -39.694544 -12.491057
-5.7176 84.0155 -2.6839999999999997 169.26893 58.846895 -178.625971 -8.454476 -10.702703 -67.50992 8.409735 2.216488 74.149704 7.982295 31.315653 121.445242 -12.896871 -12.22412 -98.224473 -0.003281 -0.0 0.002485 -0.000266 -0.0 8.3e-05 -13.743563 42.431531 15.569339 -41.934554 -11.619078 -9.957462 33.012443 60.626682 -165.332484 -167.534107 16.913004 138.847435 71.830557 -48.263602 25.792685 -150.391419 -11.232239 120.706119 -83.732025 42.332166 69.990448 8.14103 -3.535129 -5.222195 -170.282714 -36.722798 145.341984 -163.878107 -6.223866 143.139546 -145.123429 1.895003 -179.722939 11.978864 44.57367 -3.874658 -152.502782 38.523667 -147.797277 5.589746 10.196324 0.925137 159.221 -48.724939 -170.567846 -149.031467 -38.63858 153.227346 169.643135 53.632086 -26.116984 -161.801214 -32.122877 -140.606563 178.518822 -16.064495 -89.475342 71.730886 5.681524 -20.038093 166.820835 -43.974181 -122.061131 -86.731749 -69.007853 -32.168207 159.364498 -2.685379 -142.598283 -3.101384 0.394861 -0.411343 0.008364 -0.872525 0.272674 15.542597 69.592823 -28.522753 147.206921 18.767726 143.593123 -2.302603 0.318813 1.885123 -179.993705 75.750005 -0.004307 179.312584 35.550455 177.042583 19.278668 -54.543281 155.294137 129.850242 21.229992 -43.57722 0.006898 0.00036 0.003449 5.335368 -25.348433 12.30564 20.502001 33.393857 26.887214 29.183849 -46.627712 -51.692452
